<svg width="24" height="24" viewBox="0 0 24 24" fill="none" xmlns="http://www.w3.org/2000/svg">
<mask id="mask0_169_6113" style="mask-type:luminance" maskUnits="userSpaceOnUse" x="0" y="0" width="24" height="24">
<path d="M24 0H0V24H24V0Z" fill="white"/>
</mask>
<g mask="url(#mask0_169_6113)">
<path d="M20 1.69995H5C3.9 1.69995 3 2.59995 3 3.69995V20.2999C3 21.4 3.9 22.2999 5 22.2999H20C20.5 22.2999 21 21.9 21 21.2999V2.69995C21 2.09995 20.6 1.69995 20 1.69995Z" fill="black"/>
<path d="M14.9001 10.2999H13.0001V14.2999C13.0001 14.8999 12.6001 15.2999 12.0001 15.2999C11.5001 15.2999 11.0001 14.8999 11.0001 14.2999V10.2999H9.1001C8.6001 10.2999 8.1001 9.89993 8.1001 9.29993C8.1001 8.79993 8.5001 8.29993 9.1001 8.29993H11.0001V6.29993C11.0001 5.79993 11.4001 5.29993 12.0001 5.29993C12.5001 5.29993 13.0001 5.69993 13.0001 6.29993V8.29993H14.9001C15.4001 8.29993 15.9001 8.79993 15.9001 9.29993C15.9001 9.89993 15.4001 10.2999 14.9001 10.2999Z" fill="white"/>
</g>
</svg>
