<svg width="24" height="24" viewBox="0 0 24 24" fill="none" xmlns="http://www.w3.org/2000/svg">
<mask id="mask0_200_6620" style="mask-type:luminance" maskUnits="userSpaceOnUse" x="0" y="0" width="24" height="24">
<path d="M24 0H0V24H24V0Z" fill="white"/>
</mask>
<g mask="url(#mask0_200_6620)">
<path d="M22 10V20.2C22 21.3 21.1 22.2 20 22.2H14V17.2C14 16.6 13.6 16.2 13 16.2H11C10.4 16.2 10 16.6 10 17.2V22.2H4C2.9 22.2 2 21.3 2 20.2V10C2 9.70002 2.1 9.40002 2.4 9.20002L11.4 2.00002C11.8 1.70002 12.3 1.70002 12.7 2.00002L21.7 9.20002C21.9 9.40002 22 9.70002 22 10Z" fill="black"/>
</g>
</svg>
