<svg width="24" height="24" viewBox="0 0 24 24" fill="none" xmlns="http://www.w3.org/2000/svg">
<mask id="mask0_169_6122" style="mask-type:luminance" maskUnits="userSpaceOnUse" x="0" y="0" width="24" height="24">
<path d="M24 0H0V24H24V0Z" fill="white"/>
</mask>
<g mask="url(#mask0_169_6122)">
<path d="M12 8.5C13.6569 8.5 15 7.15685 15 5.5C15 3.84315 13.6569 2.5 12 2.5C10.3431 2.5 9 3.84315 9 5.5C9 7.15685 10.3431 8.5 12 8.5Z" fill="black"/>
<path d="M22 6.20005V9.90005C22 10.2 21.9 10.5 21.6 10.7L16.7 15.4L18.1 20.2C18.3 20.8 17.8 21.5 17.1 21.5H6.8C6.1 21.5 5.7 20.9 5.8 20.2L7.2 15.4L2.3 10.7C2.1 10.5 2 10.2 2 9.90005V6.20005C2 5.30005 3 4.70005 3.8 5.20005L11.4 9.70005C11.8 9.90005 12.2 9.90005 12.6 9.70005L20.2 5.20005C21 4.70005 22 5.30005 22 6.20005Z" fill="black"/>
</g>
</svg>
